# xmcd
#
# Track frame offsets:
# 150
# 11079
# 24684
# 37634
# 50242
# 66001
# 82171
# 107138
# 119768
# 134661
# 147362
# 163934
# 183761
# 198034
# 214644
# 230739
#
# Disc length: 3267 seconds
#
#
# Revision: 0
# Processed by: cddbd v1.5.1PL2 Copyright (c) Steve Scherf et al.
# Submitted via: FreeRIP 2.945 
#
DISCID=ec0cc110
DTITLE=Express - Die großen Hits
DYEAR=2006
DGENRE=Country
TTITLE0=Ein Wigwam steht in Babelsberg
TTITLE1=Petrus,stell die Sonne ab
TTITLE2=Manchmal treffen sich zwei Leben
TTITLE3=Liebling,ich verspeise dich zum Frühstück
TTITLE4=Sie war ein großes Mädchen
TTITLE5=Schlaf schön,Rosemarie
TTITLE6=Eine Band mit Haut und Haar
TTITLE7=Nur mit Inserat
TTITLE8=Ich hab zu Haus ein Puzzlespiel
TTITLE9=Bitte,laß mir noch ein wenig Zeit
TTITLE10=Es gibt noch immer Leute
TTITLE11=Leben um ein Mensch zu sein
TTITLE12=Nach Havanna
TTITLE13=Wenn Musikanten heimwärts fahren
TTITLE14=Nimm die Nacht in deine Hände
TTITLE15=Schlafenszeit
EXTD=
EXTT0=
EXTT1=
EXTT2=
EXTT3=
EXTT4=
EXTT5=
EXTT6=
EXTT7=
EXTT8=
EXTT9=
EXTT10=
EXTT11=
EXTT12=
EXTT13=
EXTT14=
EXTT15=
PLAYORDER=
